# xmcd
#
# Track frame offsets:
#	150
#	11914
#	22537
#	36589
#	46831
#	60512
#	72056
#	84606
#	98220
#	112184
#	123234
#	135700
#	148761
#	158569
#	173200
#	183651
#	196605
#	212014
#	222737
#	231251
#
# Disc length: 3267 seconds
#
# Revision: 0
# Processed by: cddbd v1.5.2PL0 Copyright (c) Steve Scherf et al.
# Submitted via: audiograbber 1.83.01
#
DISCID=1e0cc114
DTITLE=Various Artist - Lovesick Blues
DYEAR=2001
DGENRE=Country and Western
TTITLE0=Billie Jo Spears - Try a little tenderness
TTITLE1=Faron Young - If you ain't lovin'
TTITLE2=Barbara Fairchild - Teddy bear song
TTITLE3=Porter Wagoner - The green green grass of home
TTITLE4=Jimmy Dean - Big bad John
TTITLE5=Kitty Wells - Heartbreak USA
TTITLE6=Hank Thompson - Oklahome hills
TTITLE7=Johnny Russel - Catfish John
TTITLE8=Jeannie Seely - One day at a time
TTITLE9=Jack Greene - What locks the door
TTITLE10=Frankie Miller - Blackland farmer
TTITLE11=Billy Edd Wheeler - Ode to the little brown shack out back
TTITLE12=Ned Miller - From a jack to a king
TTITLE13=Jeannie C Riley - Harper Valley PTA
TTITLE14=George Hamilton IV - Abilene
TTITLE15=Claude King - Wolverton mountain
TTITLE16=Melba Montgomery - No Charge
TTITLE17=Ferlin Huskey - The wings of a dove
TTITLE18=Warren Smith - Odds and ends, bits and pieces
TTITLE19=Lynn Andersen - Rose Garden
EXTD=
EXTT0=
EXTT1=
EXTT2=
EXTT3=
EXTT4=
EXTT5=
EXTT6=
EXTT7=
EXTT8=
EXTT9=
EXTT10=
EXTT11=
EXTT12=
EXTT13=
EXTT14=
EXTT15=
EXTT16=
EXTT17=
EXTT18=
EXTT19=
PLAYORDER=
